<svg xmlns="http://www.w3.org/2000/svg" width="319" height="392" viewBox="0 0 319 392">
<g>
<path d="M 0.00 0.00 L 319.00 0.00 L 319.00 392.00 L 0.00 392.00 ZM 154.50 364.43 C156.15,366.92 157.82,368.97 158.21,368.98 C158.60,368.99 159.80,368.06 160.88,366.90 C162.34,365.33 163.54,364.96 165.67,365.42 C168.22,365.97 168.79,365.56 171.44,361.27 C173.06,358.65 176.57,353.35 179.24,349.50 C192.83,329.93 196.91,321.30 197.64,310.55 C198.01,305.10 198.95,300.89 200.54,297.50 C205.25,287.50 206.29,281.54 206.75,261.75 C207.19,242.80 206.80,240.60 203.74,244.97 C202.98,246.05 199.29,250.34 195.54,254.50 C190.02,260.62 187.18,262.82 180.70,266.03 C176.29,268.21 171.52,270.00 170.09,270.01 C168.67,270.02 165.46,270.64 162.97,271.40 C158.64,272.71 149.77,272.21 146.99,270.49 C146.43,270.15 144.74,269.62 143.23,269.34 C141.73,269.05 139.82,268.66 139.00,268.48 C138.18,268.30 136.91,268.12 136.19,268.08 C135.47,268.03 135.12,267.62 135.41,267.14 C135.70,266.67 134.83,266.50 133.47,266.76 C132.04,267.04 131.00,266.76 131.00,266.12 C131.00,265.50 129.91,265.00 128.57,265.00 C127.18,265.00 125.32,263.95 124.21,262.53 C123.14,261.18 121.99,260.34 121.66,260.68 C121.32,261.01 120.76,260.53 120.40,259.60 C120.04,258.67 118.12,256.24 116.12,254.21 C112.21,250.21 106.00,242.46 106.00,241.57 C106.00,241.27 104.00,238.39 101.55,235.17 C95.52,227.24 90.09,212.17 90.14,203.50 C90.16,198.93 90.49,199.67 93.48,211.00 C94.42,214.57 95.85,218.62 96.66,220.00 C97.46,221.38 98.37,223.29 98.68,224.25 C98.98,225.21 99.66,226.00 100.18,226.00 C100.69,226.00 100.87,226.40 100.57,226.89 C100.26,227.38 101.81,229.41 104.01,231.39 C106.20,233.37 108.00,235.65 108.00,236.45 C108.00,237.25 108.70,238.29 109.55,238.77 C110.40,239.24 111.17,240.57 111.25,241.71 C111.35,242.96 111.92,243.58 112.70,243.28 C113.42,243.01 114.00,243.46 114.00,244.29 C114.00,246.07 116.01,246.96 120.33,247.10 C123.37,247.20 123.39,247.23 121.00,248.00 C118.67,248.75 118.74,248.82 122.00,249.02 C123.93,249.13 124.71,249.44 123.75,249.69 C122.79,249.94 122.00,251.08 122.00,252.23 C122.00,254.18 122.11,254.21 123.83,252.65 C124.83,251.74 126.07,251.01 126.58,251.02 C127.09,251.02 126.82,251.47 126.00,252.00 C124.76,252.80 124.85,252.97 126.52,252.98 C127.63,252.99 130.10,254.06 132.02,255.34 C135.29,257.55 138.08,258.55 143.98,259.66 C145.34,259.91 146.75,260.60 147.12,261.19 C147.94,262.51 152.37,259.43 154.04,256.37 C155.51,253.68 158.74,254.34 160.25,257.64 C161.65,260.73 163.00,260.65 163.00,257.48 C163.00,255.83 163.78,254.60 165.25,253.93 C168.71,252.37 171.81,250.48 173.74,248.76 C174.71,247.90 177.09,246.54 179.03,245.74 C180.97,244.94 184.09,242.76 185.95,240.90 C188.08,238.77 189.49,237.97 189.75,238.75 C191.25,243.26 197.41,236.40 199.66,227.71 C200.41,224.84 201.42,222.36 201.92,222.20 C202.42,222.03 204.01,220.79 205.46,219.45 C206.92,218.10 208.53,217.00 209.05,217.00 C209.57,217.00 210.00,216.30 210.00,215.45 C210.00,214.60 210.77,212.46 211.72,210.70 C213.25,207.86 214.58,202.48 216.60,191.00 C216.94,189.07 217.67,186.65 218.22,185.60 C219.60,183.00 220.43,164.85 219.55,156.59 C218.78,149.41 218.24,148.91 216.99,154.20 C216.26,157.26 216.20,157.14 216.10,152.50 C215.96,146.02 213.23,141.43 208.94,140.49 C206.66,139.99 206.12,139.54 207.09,138.95 C209.79,137.28 204.91,136.70 193.77,137.38 C182.36,138.07 175.80,139.80 183.50,140.09 C187.38,140.23 187.41,140.26 184.50,141.00 C182.85,141.42 179.70,141.77 177.50,141.78 C174.09,141.80 173.87,141.68 176.00,141.00 C178.44,140.22 178.45,140.20 176.21,140.10 C173.08,139.96 166.34,143.54 164.60,146.26 C161.22,151.56 166.98,167.80 174.06,172.93 C177.30,175.27 177.82,176.00 176.28,176.00 C172.46,176.00 168.72,171.70 164.29,162.21 C161.88,157.05 160.04,151.85 160.20,150.66 C160.48,148.67 160.06,148.50 155.00,148.50 L 149.50 148.50 L 148.87 152.50 C148.52,154.70 147.29,159.64 146.13,163.48 C143.34,172.68 139.42,176.69 131.38,178.58 C120.19,181.22 105.11,179.65 99.96,175.31 C97.00,172.82 94.02,165.19 92.54,156.31 C92.07,153.50 91.06,151.62 89.45,150.56 C87.39,149.21 87.20,148.65 88.12,146.63 C89.24,144.18 93.58,142.81 104.50,141.47 C110.15,140.78 109.21,142.25 102.88,144.00 C94.03,146.46 92.48,150.35 95.58,162.31 C99.12,175.96 101.44,177.50 118.50,177.50 C129.30,177.50 131.00,177.25 135.50,175.00 C142.09,171.71 145.32,165.60 145.82,155.50 C146.12,149.50 145.87,148.19 144.09,146.30 C141.08,143.11 135.86,141.83 124.09,141.40 C118.37,141.19 113.45,140.79 113.17,140.51 C112.89,140.23 113.53,139.95 114.58,139.88 C115.64,139.82 116.95,139.66 117.50,139.54 C118.05,139.41 118.95,139.23 119.50,139.14 C120.05,139.04 119.95,138.62 119.28,138.20 C118.59,137.75 120.09,137.31 122.78,137.17 C125.38,137.03 129.63,136.75 132.24,136.55 C136.78,136.21 136.96,136.30 136.40,138.54 C135.88,140.60 136.26,140.96 139.66,141.63 C150.22,143.69 168.32,141.52 174.69,137.44 C176.20,136.47 180.99,135.92 190.19,135.67 C203.45,135.31 207.36,135.87 209.42,138.42 C210.01,139.16 212.98,140.02 216.00,140.33 C220.88,140.84 221.23,140.76 219.14,139.61 C217.38,138.64 216.71,137.30 216.48,134.28 C216.14,129.68 212.45,118.99 208.54,111.23 C207.08,108.34 205.71,105.07 205.50,103.98 C204.89,100.81 204.03,99.94 199.64,98.04 C197.36,97.05 192.71,94.01 189.31,91.27 C183.85,86.89 182.39,86.22 177.01,85.66 C173.65,85.31 170.03,84.55 168.96,83.98 C167.57,83.24 164.50,83.35 158.26,84.38 C153.44,85.18 146.12,85.79 142.00,85.74 C135.08,85.65 134.04,85.92 128.50,89.26 C125.20,91.25 121.20,94.28 119.62,95.99 C118.03,97.70 115.11,100.31 113.12,101.79 C111.13,103.28 109.14,105.05 108.70,105.74 C107.10,108.26 102.04,110.10 98.53,109.44 L 95.11 108.80 L 93.70 114.15 C91.61,122.07 89.00,136.32 89.00,139.86 C89.00,141.56 88.10,144.43 87.00,146.23 C84.62,150.14 84.47,151.42 86.50,150.64 C88.18,149.99 88.41,152.22 87.00,155.50 C86.18,157.41 86.14,157.40 86.07,155.25 C86.02,153.77 85.38,153.00 84.19,153.00 C80.51,153.00 75.65,148.21 74.30,143.24 C70.91,130.79 69.12,119.41 69.04,109.95 C69.02,106.90 68.53,103.93 67.96,103.36 C66.96,102.36 65.66,88.25 65.73,79.13 C65.77,73.19 69.25,61.42 73.65,52.33 C77.28,44.84 89.86,31.68 96.28,28.66 C108.75,22.81 109.32,22.73 140.50,22.55 C172.87,22.37 174.24,22.55 188.28,28.85 C190.90,30.03 194.92,31.00 197.19,31.00 C199.47,31.00 201.05,31.28 200.70,31.63 C199.42,32.91 202.13,36.00 204.54,36.00 C205.89,36.00 207.00,36.45 207.00,37.00 C207.00,37.55 208.32,38.00 209.93,38.00 C211.88,38.00 213.53,38.86 214.87,40.57 C215.98,41.98 218.44,43.56 220.33,44.08 C224.43,45.21 226.19,48.97 222.66,49.04 C220.90,49.08 221.19,49.50 224.23,51.29 C227.70,53.34 231.16,59.00 228.95,59.00 C228.43,59.00 228.68,59.79 229.52,60.75 C240.22,73.10 242.61,79.27 240.07,88.00 C239.29,90.70 240.63,96.00 242.10,96.00 C242.59,96.00 243.00,96.95 243.00,98.11 C243.00,99.50 242.53,100.03 241.60,99.68 C240.48,99.25 240.19,100.59 240.15,106.32 C240.07,116.59 239.27,123.97 238.06,125.43 C237.49,126.12 237.28,126.94 237.59,127.26 C237.91,127.58 237.51,129.34 236.69,131.17 C235.88,133.00 234.67,136.61 233.99,139.19 C233.02,142.93 231.95,144.43 228.74,146.55 C226.53,148.02 223.99,149.33 223.11,149.45 C222.88,149.49 222.68,149.51 222.50,149.59 C221.23,150.15 221.19,153.51 220.67,183.50 C220.20,210.31 219.76,212.57 211.95,228.11 C208.10,235.76 207.03,240.00 208.95,240.00 C210.42,240.00 215.36,247.66 221.24,259.04 L 226.56 269.35 L 236.53 272.17 C242.01,273.73 252.41,276.35 259.63,278.00 C266.86,279.65 275.74,282.12 279.37,283.49 C282.99,284.85 291.48,287.58 298.23,289.56 C304.98,291.53 310.93,293.56 311.45,294.07 C311.49,294.11 311.53,294.15 311.57,294.19 C312.05,294.67 312.47,295.07 312.82,295.03 C315.00,294.75 315.00,277.50 315.00,154.63 L 315.00 4.00 L 4.00 4.00 L 4.00 156.50 C4.00,240.38 4.19,309.00 4.42,309.00 C4.92,309.00 11.68,306.12 18.50,302.99 C21.25,301.73 27.10,299.08 31.50,297.10 C35.90,295.12 45.12,290.52 52.00,286.88 C58.88,283.25 68.26,279.03 72.86,277.52 C81.04,274.82 81.26,274.66 83.19,270.13 C88.28,258.16 93.14,249.09 96.79,244.77 L 100.79 240.03 L 101.51 248.06 C101.90,252.47 101.91,261.35 101.54,267.79 C100.58,284.28 103.45,295.17 112.53,309.50 C114.38,312.42 115.96,316.53 116.35,319.38 C116.90,323.52 118.03,325.47 123.90,332.38 C132.75,342.79 134.96,345.07 144.03,353.20 C148.14,356.89 152.85,361.95 154.50,364.43 ZM 129.19 154.25 C126.96,156.85 124.44,156.38 121.68,152.85 L 119.22 149.70 L 115.74 151.85 C111.50,154.47 109.84,154.68 113.12,152.18 C118.03,148.44 126.77,146.27 129.99,148.00 C132.08,149.11 131.81,151.20 129.19,154.25 ZM 79.67 337.33 C81.06,338.73 83.00,337.91 83.00,335.92 C83.00,333.40 78.21,312.30 77.00,309.50 C76.21,307.67 76.13,307.71 76.07,310.00 C76.03,311.38 76.68,316.33 77.50,321.00 C78.32,325.67 79.00,331.11 79.00,333.08 C79.00,335.05 79.30,336.97 79.67,337.33 ZM 185.96 155.02 C184.95,155.56 183.72,156.00 183.22,156.00 C181.97,156.00 179.00,152.60 179.00,151.17 C179.00,150.53 178.44,149.98 177.75,149.96 C177.06,149.95 177.62,149.29 179.00,148.50 C181.50,147.07 188.15,146.48 189.25,147.59 C190.26,148.60 187.87,154.00 185.96,155.02 ZM 189.43 215.43 C187.67,217.19 178.00,217.67 178.00,216.00 C178.00,215.45 178.46,215.00 179.02,215.00 C179.58,215.00 180.59,213.76 181.25,212.25 C182.88,208.55 183.87,208.00 186.90,209.15 C191.06,210.73 191.94,212.92 189.43,215.43 ZM 249.17 388.13 C250.90,389.22 266.10,389.22 267.83,388.12 C269.68,386.96 265.96,386.03 259.38,386.01 C252.42,386.00 247.44,387.03 249.17,388.13 ZM 196.77 150.63 C199.09,152.95 195.61,152.34 192.86,149.95 L 190.50 147.89 L 192.95 148.58 C194.30,148.96 196.02,149.88 196.77,150.63 ZM 227.60 302.16 C228.61,303.80 229.00,302.95 228.91,299.25 C228.83,295.52 228.82,295.52 227.96,298.41 C227.48,300.02 227.32,301.70 227.60,302.16 ZM 200.00 315.12 C200.00,316.22 200.45,316.84 201.00,316.50 C201.55,316.16 202.00,314.98 202.00,313.88 C202.00,312.78 201.55,312.16 201.00,312.50 C200.45,312.84 200.00,314.02 200.00,315.12 ZM 111.46 325.93 C112.27,327.25 114.00,327.34 114.00,326.06 C114.00,324.88 112.05,323.62 111.33,324.33 C111.04,324.63 111.10,325.35 111.46,325.93 ZM 204.00 325.00 C204.00,325.55 204.68,326.00 205.50,326.00 C206.32,326.00 207.00,325.55 207.00,325.00 C207.00,324.45 206.32,324.00 205.50,324.00 C204.68,324.00 204.00,324.45 204.00,325.00 ZM 123.00 150.00 C123.00,150.55 123.45,151.00 124.00,151.00 C124.55,151.00 125.00,150.55 125.00,150.00 C125.00,149.45 124.55,149.00 124.00,149.00 C123.45,149.00 123.00,149.45 123.00,150.00 ZM 120.00 335.00 C120.00,335.55 120.45,336.00 121.00,336.00 C121.55,336.00 122.00,335.55 122.00,335.00 C122.00,334.45 121.55,334.00 121.00,334.00 C120.45,334.00 120.00,334.45 120.00,335.00 Z" fill="rgb(25,32,63)"/>
<path d="M 145.59 248.15 C146.09,248.96 146.68,248.79 147.56,247.58 C148.61,246.15 149.43,246.02 152.40,246.85 C154.42,247.40 156.22,247.45 156.52,246.96 C156.82,246.48 157.62,246.30 158.29,246.56 C158.96,246.82 159.96,246.04 160.51,244.83 C161.10,243.53 162.50,242.57 163.95,242.47 C165.30,242.38 166.57,241.79 166.78,241.15 C166.99,240.52 168.14,239.99 169.33,239.98 C170.52,239.98 172.18,239.54 173.00,239.02 C174.33,238.18 174.32,237.89 172.94,236.51 C171.62,235.19 170.31,235.11 164.44,235.96 C152.96,237.62 149.46,237.35 147.70,234.67 C145.46,231.25 147.00,229.78 153.14,229.50 C159.23,229.22 160.72,228.68 167.00,224.51 C175.39,218.93 174.42,218.17 158.75,218.07 C152.56,218.03 148.00,217.59 148.00,217.04 C148.00,215.33 152.15,213.78 155.12,214.37 C157.20,214.79 158.00,214.56 158.00,213.54 C158.00,211.95 159.46,211.40 166.24,210.44 C171.38,209.72 171.74,208.60 167.14,207.68 C162.86,206.82 160.95,204.49 161.66,200.96 C162.08,198.85 161.85,197.97 160.88,197.88 C160.12,197.82 158.86,197.71 158.09,197.63 C156.15,197.45 155.46,195.00 157.34,195.00 C158.17,195.00 160.25,193.82 161.96,192.38 C164.92,189.89 165.29,189.82 169.54,191.01 C174.56,192.42 174.97,193.21 171.79,195.43 C170.39,196.41 169.93,197.33 170.54,197.92 C172.08,199.42 181.65,204.00 183.26,204.00 C184.06,204.00 186.36,205.11 188.37,206.47 C193.38,209.87 196.19,208.73 198.57,202.32 C199.56,199.67 202.31,193.77 204.68,189.21 C207.06,184.65 209.00,179.67 209.00,178.16 C209.00,176.64 209.56,174.77 210.25,174.00 C211.30,172.82 211.24,172.79 209.84,173.85 C208.82,174.61 207.95,174.72 207.58,174.13 C207.25,173.60 208.83,171.36 211.09,169.15 C213.53,166.76 214.90,164.65 214.47,163.95 C214.07,163.30 214.16,162.49 214.66,162.14 C215.16,161.79 215.33,157.80 215.04,153.28 C214.63,147.04 214.05,144.64 212.63,143.28 C210.80,141.54 210.79,141.57 212.53,144.31 C214.12,146.83 214.19,148.04 213.21,156.02 C212.61,160.91 211.58,165.92 210.92,167.15 C209.75,169.34 209.70,169.32 208.61,166.01 C207.13,161.50 203.30,160.43 196.59,162.64 C193.00,163.83 189.59,164.12 183.84,163.73 C177.55,163.30 175.98,163.47 175.88,164.59 C175.63,167.40 175.48,167.85 174.59,168.67 C174.06,169.15 173.98,168.98 174.40,168.25 C175.39,166.53 173.52,166.67 172.06,168.43 C171.11,169.57 171.27,170.27 172.80,171.80 C174.83,173.83 180.52,174.84 191.75,175.15 C195.19,175.25 198.00,175.66 198.00,176.06 C198.00,177.15 190.45,177.69 182.28,177.19 C177.59,176.90 175.69,176.61 173.62,175.29 C174.51,175.77 175.39,176.00 176.28,176.00 C177.82,176.00 177.30,175.27 174.06,172.93 C166.98,167.80 161.22,151.56 164.60,146.26 C166.34,143.54 173.08,139.96 176.21,140.10 C178.45,140.20 178.44,140.22 176.00,141.00 C173.87,141.68 174.09,141.80 177.50,141.78 C179.70,141.77 182.85,141.42 184.50,141.00 C187.41,140.26 187.38,140.23 183.50,140.09 C176.07,139.81 181.92,138.19 192.59,137.46 C192.22,137.60 192.00,137.76 192.00,137.94 C192.00,138.46 193.67,138.62 195.75,138.30 C199.35,137.74 200.53,137.33 199.27,137.13 C206.45,136.95 209.29,137.58 207.09,138.95 C206.12,139.54 206.66,139.99 208.94,140.49 C213.23,141.43 215.96,146.02 216.10,152.50 C216.20,157.14 216.26,157.26 216.99,154.20 C218.24,148.91 218.78,149.41 219.55,156.59 C220.43,164.85 219.60,183.00 218.22,185.60 C217.67,186.65 216.94,189.07 216.60,191.00 C214.58,202.48 213.25,207.86 211.72,210.70 C210.77,212.46 210.00,214.60 210.00,215.45 C210.00,216.30 209.57,217.00 209.05,217.00 C208.53,217.00 206.92,218.10 205.46,219.45 C204.01,220.79 202.42,222.03 201.92,222.20 C201.42,222.36 200.41,224.84 199.66,227.71 C197.41,236.40 191.25,243.26 189.75,238.75 C189.49,237.97 188.08,238.77 185.95,240.90 C184.09,242.76 180.97,244.94 179.03,245.74 C177.09,246.54 174.71,247.90 173.74,248.76 C171.81,250.48 168.71,252.37 165.25,253.93 C163.78,254.60 163.00,255.83 163.00,257.48 C163.00,260.65 161.65,260.73 160.25,257.64 C158.74,254.34 155.51,253.68 154.04,256.37 C152.37,259.43 147.94,262.51 147.12,261.19 C146.75,260.60 145.34,259.91 143.98,259.66 C138.08,258.55 135.29,257.55 132.02,255.34 C130.10,254.06 127.63,252.99 126.52,252.98 C124.85,252.97 124.76,252.80 126.00,252.00 C126.82,251.47 127.09,251.02 126.58,251.02 C126.07,251.01 124.83,251.74 123.83,252.65 C122.11,254.21 122.00,254.18 122.00,252.23 C122.00,251.08 122.79,249.94 123.75,249.69 C124.71,249.44 123.93,249.13 122.00,249.02 C118.74,248.82 118.67,248.75 121.00,248.00 C123.39,247.23 123.37,247.20 120.33,247.10 C116.01,246.96 114.00,246.07 114.00,244.29 C114.00,243.46 113.42,243.01 112.70,243.28 C111.92,243.58 111.35,242.96 111.25,241.71 C111.17,240.57 110.40,239.24 109.55,238.77 C108.70,238.29 108.00,237.25 108.00,236.45 C108.00,235.65 106.20,233.37 104.01,231.39 C101.81,229.41 100.26,227.38 100.57,226.89 C100.87,226.40 100.69,226.00 100.18,226.00 C99.66,226.00 98.98,225.21 98.68,224.25 C98.37,223.29 97.46,221.38 96.66,220.00 C95.85,218.62 94.42,214.57 93.48,211.00 C90.49,199.67 90.16,198.93 90.14,203.50 C90.13,204.84 90.25,206.33 90.49,207.92 C90.23,206.42 90.08,205.07 90.06,203.95 C90.03,202.00 89.55,199.95 89.00,199.40 C88.45,198.85 87.79,193.52 87.53,187.57 C87.18,179.25 86.67,176.30 85.37,174.86 C83.96,173.30 83.85,172.38 84.74,169.49 C85.33,167.58 85.57,163.42 85.29,160.25 L 84.76 154.50 L 79.44 152.00 C74.97,149.90 74.20,149.15 74.64,147.35 C74.80,146.72 74.74,145.46 74.53,143.98 C76.13,148.67 80.69,153.00 84.19,153.00 C85.38,153.00 86.02,153.77 86.07,155.25 C86.14,157.40 86.18,157.41 87.00,155.50 C88.41,152.22 88.18,149.99 86.50,150.64 C84.47,151.42 84.62,150.14 87.00,146.23 C88.10,144.43 89.00,141.56 89.00,139.86 C89.00,136.32 91.61,122.07 93.70,114.15 L 95.11 108.80 L 98.53 109.44 C102.04,110.10 107.10,108.26 108.70,105.74 C109.14,105.05 111.13,103.28 113.12,101.79 C115.11,100.31 118.03,97.70 119.62,95.99 C121.20,94.28 125.20,91.25 128.50,89.26 C134.04,85.92 135.08,85.65 142.00,85.74 C146.12,85.79 153.44,85.18 158.26,84.38 C164.50,83.35 167.57,83.24 168.96,83.98 C170.03,84.55 173.65,85.31 177.01,85.66 C182.39,86.22 183.85,86.89 189.31,91.27 C192.71,94.01 197.36,97.05 199.64,98.04 C204.03,99.94 204.89,100.81 205.50,103.98 C205.71,105.07 207.08,108.34 208.54,111.23 C212.45,118.99 216.14,129.68 216.48,134.28 C216.71,137.30 217.38,138.64 219.14,139.61 C221.23,140.76 220.88,140.84 216.00,140.33 C212.98,140.02 210.01,139.16 209.42,138.42 C207.36,135.87 203.45,135.31 190.19,135.67 C180.99,135.92 176.20,136.47 174.69,137.44 C171.87,139.25 166.75,140.68 161.01,141.53 C162.71,141.00 163.86,140.21 165.06,138.93 C168.17,135.60 173.51,134.01 181.60,134.01 C187.94,134.00 189.27,133.35 198.42,125.75 L 201.33 123.32 L 197.99 117.41 C193.92,110.20 190.28,105.56 182.71,97.90 C176.30,91.43 170.71,89.06 161.57,88.93 C158.78,88.89 154.11,88.51 151.18,88.10 C139.17,86.39 130.29,90.03 117.38,101.94 C114.20,104.87 110.10,107.89 108.28,108.66 C103.32,110.73 96.30,116.41 96.81,117.94 C97.06,118.68 95.87,122.03 94.17,125.39 C92.21,129.28 90.83,133.83 90.40,137.90 C89.71,144.31 89.71,144.31 92.10,143.67 C92.75,143.50 93.47,143.34 94.11,143.22 C90.55,144.12 88.78,145.19 88.12,146.63 C87.20,148.65 87.39,149.21 89.45,150.56 C89.79,150.78 90.11,151.04 90.40,151.34 C90.35,151.30 90.31,151.27 90.27,151.26 C88.57,150.69 87.66,166.49 88.98,173.50 C89.61,176.80 90.37,180.96 90.67,182.75 C90.97,184.54 91.57,186.00 92.00,186.00 C92.92,186.00 94.10,190.07 94.59,194.88 C94.77,196.74 95.57,198.99 96.35,199.88 C97.13,200.77 98.07,202.51 98.45,203.75 C98.83,204.99 99.55,206.00 100.07,206.00 C100.58,206.00 101.00,206.90 101.00,208.00 C101.00,209.14 101.67,210.00 102.55,210.00 C103.40,210.00 104.86,211.35 105.80,212.99 C106.73,214.64 107.84,215.99 108.25,215.99 C108.66,216.00 109.00,216.91 109.00,218.02 C109.00,219.23 109.95,220.41 111.36,220.95 C114.07,221.98 116.17,228.47 115.51,233.76 C114.99,237.81 117.73,239.77 121.11,237.77 C122.85,236.75 123.35,236.74 123.72,237.77 C124.59,240.18 126.97,241.82 128.87,241.32 C131.37,240.67 132.53,242.66 130.84,244.71 C129.65,246.15 129.79,246.26 132.17,245.67 C133.91,245.23 134.99,245.44 135.29,246.25 C135.64,247.23 136.25,247.20 138.07,246.11 C139.74,245.13 140.52,245.06 140.79,245.86 C141.00,246.49 142.00,247.00 143.02,247.00 C144.05,247.00 145.20,247.52 145.59,248.15 ZM 181.45 346.29 C183.31,343.35 184.88,340.68 185.68,339.00 C187.13,335.98 189.17,332.40 190.21,331.05 C191.76,329.04 191.98,327.64 191.43,323.05 C191.07,320.00 190.37,317.07 189.88,316.55 C189.39,316.02 187.33,315.70 185.31,315.84 C183.28,315.98 180.38,315.57 178.85,314.94 C176.59,314.00 175.01,314.15 170.27,315.75 C163.82,317.93 161.16,317.50 158.61,313.85 C156.45,310.77 156.59,307.19 159.00,303.23 C161.66,298.87 161.56,298.23 157.49,293.11 C155.57,290.69 154.00,288.18 154.00,287.51 C154.00,286.85 155.57,284.69 157.49,282.71 C161.26,278.83 161.32,276.00 157.63,276.00 C156.44,276.00 153.00,275.06 149.99,273.90 C146.97,272.75 143.38,271.60 142.00,271.35 C132.28,269.58 125.97,267.47 125.44,265.81 C125.12,264.82 123.77,263.73 122.43,263.39 C121.10,263.06 119.99,262.49 119.98,262.14 C119.96,261.79 118.42,259.80 116.55,257.72 C112.95,253.72 102.00,237.71 102.00,236.44 C102.00,236.03 100.89,234.23 99.53,232.45 C97.86,230.27 95.93,226.06 94.24,221.41 C96.26,226.62 98.85,231.61 101.55,235.17 C104.00,238.39 106.00,241.27 106.00,241.57 C106.00,242.46 112.21,250.21 116.12,254.21 C118.12,256.24 120.04,258.67 120.40,259.60 C120.76,260.53 121.32,261.01 121.66,260.68 C121.99,260.34 123.14,261.18 124.21,262.53 C125.32,263.95 127.18,265.00 128.57,265.00 C129.91,265.00 131.00,265.50 131.00,266.12 C131.00,266.76 132.04,267.04 133.47,266.76 C134.83,266.50 135.70,266.67 135.41,267.14 C135.12,267.62 135.47,268.03 136.19,268.08 C136.91,268.12 138.18,268.30 139.00,268.48 C139.82,268.66 141.73,269.05 143.23,269.34 C144.74,269.62 146.43,270.15 146.99,270.49 C149.77,272.21 158.64,272.71 162.97,271.40 C165.46,270.64 168.67,270.02 170.09,270.01 C171.52,270.00 176.29,268.21 180.70,266.03 C187.18,262.82 190.02,260.62 195.54,254.50 C199.29,250.34 202.98,246.05 203.74,244.97 C206.80,240.60 207.19,242.80 206.75,261.75 C206.29,281.54 205.25,287.50 200.54,297.50 C198.95,300.89 198.01,305.10 197.64,310.55 C196.95,320.70 193.28,328.95 181.45,346.29 ZM 220.20 199.67 C220.43,195.43 220.55,190.24 220.67,183.50 C221.19,153.51 221.23,150.15 222.50,149.59 C222.68,149.51 222.88,149.49 223.11,149.45 C223.99,149.33 226.53,148.02 228.74,146.55 C231.44,144.77 232.63,143.42 233.51,140.82 C233.20,142.02 233.00,142.96 233.00,143.37 C233.00,143.71 233.66,144.00 234.46,144.00 C239.19,144.00 239.03,158.92 234.18,171.74 C232.46,176.27 230.40,181.00 229.60,182.24 C228.80,183.48 227.85,186.16 227.48,188.18 C227.05,190.53 225.58,192.97 223.40,194.95 C221.37,196.80 220.53,197.83 220.20,199.67 ZM 154.50 364.43 C152.85,361.95 148.14,356.89 144.03,353.20 C134.96,345.07 132.75,342.79 123.90,332.38 C118.03,325.47 116.90,323.52 116.35,319.38 C115.96,316.53 114.38,312.42 112.53,309.50 C109.30,304.41 106.86,299.75 105.10,295.13 C107.89,301.44 112.40,307.42 119.24,314.64 C122.96,318.57 126.00,322.20 126.00,322.71 C126.00,323.22 129.05,327.31 132.78,331.81 C137.59,337.61 141.61,341.25 146.62,344.33 C150.50,346.72 157.01,352.09 161.09,356.25 C167.47,362.76 168.70,363.62 169.95,362.42 C170.72,361.68 172.03,360.03 173.58,357.92 C172.72,359.23 171.98,360.40 171.44,361.27 C168.79,365.56 168.22,365.97 165.67,365.42 C163.54,364.96 162.34,365.33 160.88,366.90 C159.80,368.06 158.60,368.99 158.21,368.98 C157.82,368.97 156.15,366.92 154.50,364.43 ZM 129.19 154.25 C131.81,151.20 132.08,149.11 129.99,148.00 C126.77,146.27 118.03,148.44 113.12,152.18 C109.84,154.68 111.50,154.47 115.74,151.85 L 119.22 149.70 L 121.68 152.85 C122.17,153.47 122.64,154.00 123.11,154.43 C122.68,154.10 122.23,153.72 121.77,153.28 C119.49,151.10 118.59,150.77 117.21,151.64 C116.27,152.24 115.50,153.56 115.50,154.58 C115.49,157.05 109.53,157.44 106.86,155.14 C105.82,154.24 103.07,153.27 100.74,153.00 C97.76,152.65 96.42,151.98 96.19,150.75 C95.90,149.25 96.66,149.00 101.38,149.00 C104.89,149.00 107.19,148.52 107.70,147.67 C108.42,146.47 110.87,145.11 113.50,144.44 C114.05,144.30 115.62,143.69 117.00,143.07 C119.05,142.16 118.32,142.05 113.00,142.48 C104.44,143.18 99.33,144.67 96.81,147.19 C95.00,149.00 94.81,150.16 95.21,156.87 C95.38,159.79 95.70,162.33 96.18,164.54 C95.98,163.84 95.78,163.09 95.58,162.31 C92.48,150.35 94.03,146.46 102.88,144.00 C109.21,142.25 110.15,140.78 104.50,141.47 C101.32,141.86 98.71,142.25 96.56,142.67 C97.41,142.19 98.60,141.25 99.67,140.18 C103.75,136.11 113.18,133.31 114.17,135.87 C114.35,136.35 117.57,136.35 121.50,135.87 C133.96,134.34 137.46,134.41 140.32,136.29 C141.79,137.25 143.00,138.88 143.00,139.90 C143.00,141.10 144.47,141.95 146.97,142.38 C144.32,142.30 141.83,142.05 139.66,141.63 C136.26,140.96 135.88,140.60 136.40,138.54 C136.96,136.30 136.78,136.21 132.24,136.55 C129.63,136.75 125.38,137.03 122.78,137.17 C120.09,137.31 118.59,137.75 119.28,138.20 C119.95,138.62 120.05,139.04 119.50,139.14 C118.95,139.23 118.05,139.41 117.50,139.54 C116.95,139.66 115.64,139.82 114.58,139.88 C113.53,139.95 112.89,140.23 113.17,140.51 C113.45,140.79 118.37,141.19 124.09,141.40 C135.86,141.83 141.08,143.11 144.09,146.30 C145.37,147.65 145.86,148.72 145.92,151.43 C145.78,150.11 145.47,149.13 144.97,148.67 C143.99,147.76 143.88,147.80 144.46,148.83 C145.56,150.76 141.37,154.39 139.20,153.39 C138.26,152.97 137.05,152.58 136.50,152.53 C135.95,152.48 134.92,152.08 134.21,151.64 C133.37,151.11 132.21,151.74 130.89,153.42 C129.57,155.10 128.16,155.91 126.63,155.87 C127.52,155.74 128.38,155.20 129.19,154.25 ZM 126.86 220.46 C123.37,223.40 122.68,223.53 121.04,221.55 C119.32,219.48 122.18,210.12 125.47,207.03 C127.22,205.38 128.00,205.09 128.02,206.08 C128.03,207.26 128.20,207.24 129.00,206.00 C129.53,205.18 129.98,204.89 129.98,205.37 C129.99,205.85 130.76,205.63 131.69,204.87 C133.15,203.69 133.26,203.71 132.50,205.00 C131.75,206.27 131.86,206.30 133.24,205.19 C134.13,204.46 136.24,203.83 137.93,203.78 C139.62,203.73 141.00,203.26 141.00,202.73 C141.00,202.20 141.90,202.00 143.00,202.29 C144.21,202.61 145.00,202.32 145.00,201.57 C145.00,200.89 145.68,200.33 146.50,200.33 C147.32,200.33 148.00,200.67 148.00,201.07 C148.00,201.48 148.82,201.60 149.82,201.34 C151.68,200.85 154.75,203.45 153.30,204.28 C151.52,205.30 138.92,207.18 137.51,206.64 C136.58,206.28 136.00,206.64 136.00,207.56 C136.00,208.39 135.32,209.32 134.50,209.64 C131.85,210.65 132.72,213.83 135.74,214.18 C137.30,214.36 138.62,215.20 138.79,216.12 C139.04,217.42 138.17,217.76 134.48,217.84 C131.10,217.90 129.07,218.60 126.86,220.46 ZM 185.96 155.02 C187.87,154.00 190.26,148.60 189.25,147.59 C188.15,146.48 181.50,147.07 179.00,148.50 C177.62,149.29 177.06,149.95 177.75,149.96 C177.85,149.97 177.94,149.98 178.03,150.00 C176.52,150.11 174.77,152.95 175.33,154.42 C175.64,155.22 175.35,156.10 174.69,156.37 C173.15,157.02 176.98,160.22 178.56,159.61 C179.18,159.38 180.32,159.59 181.09,160.08 C182.74,161.12 188.37,161.30 189.32,160.34 C189.69,159.98 189.54,159.15 189.00,158.50 C188.32,157.68 188.77,156.93 190.51,155.99 C193.13,154.59 193.87,151.46 191.75,150.75 C191.06,150.51 189.72,151.60 188.76,153.16 C187.71,154.88 186.17,156.00 184.84,156.00 C184.53,156.00 184.21,155.96 183.87,155.88 C184.47,155.72 185.27,155.39 185.96,155.02 ZM 189.43 215.43 C191.94,212.92 191.06,210.73 186.90,209.15 C183.87,208.00 182.88,208.55 181.25,212.25 C180.59,213.76 179.58,215.00 179.02,215.00 C178.46,215.00 178.00,215.45 178.00,216.00 C178.00,217.67 187.67,217.19 189.43,215.43 ZM 171.42 173.62 C171.28,173.50 171.13,173.38 170.98,173.25 C166.97,169.82 163.02,163.09 159.49,153.70 C157.95,149.58 157.34,148.94 155.25,149.20 C153.19,149.45 152.15,151.10 148.40,159.99 C146.62,164.23 145.06,167.47 143.49,169.99 C144.50,168.17 145.35,166.02 146.13,163.48 C147.29,159.64 148.52,154.70 148.87,152.50 L 149.50 148.50 L 155.00 148.50 C160.06,148.50 160.48,148.67 160.20,150.66 C160.04,151.85 161.88,157.05 164.29,162.21 C166.85,167.68 169.17,171.43 171.42,173.62 ZM 225.07 162.12 C229.70,163.41 230.00,163.19 230.00,158.50 C230.00,156.02 229.74,154.00 229.43,154.00 C228.03,154.00 221.97,159.40 222.29,160.37 C222.49,160.96 223.74,161.75 225.07,162.12 ZM 134.86 160.94 C131.26,163.14 128.47,163.57 127.55,162.08 C127.24,161.57 127.64,160.50 128.44,159.70 C129.25,158.90 129.66,158.00 129.37,157.70 C128.82,157.16 137.21,158.02 137.86,158.58 C138.06,158.75 136.71,159.81 134.86,160.94 ZM 184.61 144.83 C184.13,145.60 184.68,145.99 186.19,145.98 C188.05,145.97 188.21,145.78 187.00,145.00 C185.81,144.23 186.01,144.02 188.00,143.98 C189.38,143.96 191.40,143.26 192.50,142.43 C195.48,140.17 192.62,138.78 188.59,140.52 C186.89,141.25 184.71,142.10 183.75,142.40 C182.79,142.69 182.00,143.39 182.00,143.94 C182.00,144.49 182.75,144.65 183.66,144.30 C184.78,143.87 185.09,144.04 184.61,144.83 ZM 115.99 147.51 C115.03,148.67 115.48,148.81 118.67,148.37 C124.50,147.55 125.50,147.10 124.27,145.87 C122.94,144.54 117.56,145.61 115.99,147.51 ZM 140.46 156.06 C140.14,156.58 138.08,157.00 135.88,157.00 C133.68,157.00 132.13,156.60 132.43,156.12 C132.73,155.63 134.79,155.21 137.01,155.18 C139.28,155.15 140.79,155.54 140.46,156.06 ZM 146.78 193.00 C145.89,193.00 144.50,193.26 143.68,193.57 C142.87,193.88 141.93,193.70 141.61,193.17 C140.76,191.81 146.07,190.67 147.34,191.94 C148.09,192.69 147.92,193.00 146.78,193.00 ZM 196.77 150.63 C196.02,149.88 194.30,148.96 192.95,148.58 L 190.50 147.89 L 192.86 149.95 C195.61,152.34 199.09,152.95 196.77,150.63 ZM 173.00 181.97 C173.00,182.54 172.35,183.00 171.56,183.00 C169.97,183.00 168.48,181.19 169.36,180.31 C170.18,179.49 173.00,180.77 173.00,181.97 ZM 227.60 302.16 C227.32,301.70 227.48,300.02 227.96,298.41 C228.82,295.52 228.83,295.52 228.91,299.25 C229.00,302.95 228.61,303.80 227.60,302.16 ZM 200.00 315.12 C200.00,314.02 200.45,312.84 201.00,312.50 C201.55,312.16 202.00,312.78 202.00,313.88 C202.00,314.98 201.55,316.16 201.00,316.50 C200.45,316.84 200.00,316.22 200.00,315.12 ZM 111.46 325.93 C111.10,325.35 111.04,324.63 111.33,324.33 C112.05,323.62 114.00,324.88 114.00,326.06 C114.00,327.34 112.27,327.25 111.46,325.93 ZM 74.81 153.93 C75.01,154.52 74.42,155.00 73.50,155.00 C72.58,155.00 71.99,154.52 72.19,153.93 C72.39,153.33 72.98,152.85 73.50,152.85 C74.02,152.85 74.61,153.33 74.81,153.93 ZM 123.00 150.00 C123.00,149.45 123.45,149.00 124.00,149.00 C124.55,149.00 125.00,149.45 125.00,150.00 C125.00,150.55 124.55,151.00 124.00,151.00 C123.45,151.00 123.00,150.55 123.00,150.00 ZM 105.69 176.58 C101.80,175.61 99.68,173.68 98.02,169.94 C99.70,173.22 102.18,175.30 105.69,176.58 ZM 69.06 110.98 C68.68,106.94 68.19,103.82 67.82,103.35 C67.36,102.75 66.79,98.52 66.36,93.39 C66.81,98.60 67.43,102.83 67.96,103.36 C68.53,103.93 69.02,106.90 69.04,109.95 C69.05,110.29 69.05,110.64 69.06,110.98 ZM 134.01 175.71 C131.10,177.02 128.93,177.39 122.94,177.47 C127.62,177.22 131.19,176.69 134.01,175.71 ZM 72.02 133.92 C70.72,128.91 70.18,125.76 69.77,120.73 C70.27,124.90 71.02,129.31 72.02,133.92 ZM 106.43 178.30 C100.37,176.85 97.84,174.62 95.60,167.95 C96.92,171.41 98.44,174.04 99.96,175.31 C101.42,176.54 103.68,177.55 106.43,178.30 ZM 92.79 157.73 C91.86,154.44 90.93,151.92 90.41,151.36 C91.48,152.48 92.18,154.11 92.54,156.31 C92.62,156.79 92.71,157.26 92.79,157.73 ZM 145.56 158.59 C144.99,163.51 143.62,167.33 141.38,170.24 C141.95,169.42 142.47,168.52 142.97,167.52 C144.16,165.11 145.06,161.79 145.56,158.59 ZM 131.38 178.58 C126.17,179.81 121.08,180.20 115.60,179.75 C120.83,180.08 126.48,179.74 131.38,178.58 ZM 219.07 209.98 C219.49,207.83 219.78,205.48 220.00,202.72 C220.00,202.83 220.00,202.94 220.00,203.06 C220.00,205.09 219.69,207.40 219.07,209.98 ZM 180.67 154.16 C179.69,153.29 179.00,152.25 179.00,151.35 C179.00,151.10 178.96,150.87 178.88,150.67 C178.96,150.82 179.00,150.99 179.00,151.17 C179.00,151.90 179.76,153.12 180.67,154.16 ZM 234.43 137.63 C235.11,135.31 236.04,132.65 236.69,131.17 C237.47,129.41 237.88,127.72 237.63,127.30 C237.88,127.72 237.48,129.41 236.71,131.17 C236.05,132.68 235.17,135.23 234.43,137.63 ZM 136.66 176.73 C135.13,177.53 133.40,178.11 131.38,178.58 C133.38,178.11 135.13,177.51 136.66,176.73 Z" fill="rgb(139,98,83)"/>
<path d="M 220.20 199.67 C220.53,197.83 221.37,196.80 223.40,194.95 C225.58,192.97 227.05,190.53 227.48,188.18 C227.85,186.16 228.80,183.48 229.60,182.24 C230.40,181.00 232.46,176.27 234.18,171.74 C239.03,158.92 239.19,144.00 234.46,144.00 C233.66,144.00 233.00,143.71 233.00,143.37 C233.00,142.96 233.20,142.02 233.51,140.82 C233.68,140.33 233.84,139.79 233.99,139.19 C234.12,138.70 234.27,138.18 234.43,137.63 C235.17,135.23 236.05,132.68 236.71,131.17 C237.48,129.41 237.88,127.72 237.63,127.30 C237.62,127.29 237.61,127.27 237.59,127.26 C237.28,126.94 237.49,126.12 238.06,125.43 C239.27,123.97 240.07,116.59 240.15,106.32 C240.19,100.59 240.48,99.25 241.60,99.68 C242.53,100.03 243.00,99.50 243.00,98.11 C243.00,96.95 242.59,96.00 242.10,96.00 C240.63,96.00 239.29,90.70 240.07,88.00 C242.61,79.27 240.22,73.10 229.52,60.75 C228.68,59.79 228.43,59.00 228.95,59.00 C231.16,59.00 227.70,53.34 224.23,51.29 C221.19,49.50 220.90,49.08 222.66,49.04 C226.19,48.97 224.43,45.21 220.33,44.08 C218.44,43.56 215.98,41.98 214.87,40.57 C213.53,38.86 211.88,38.00 209.93,38.00 C208.32,38.00 207.00,37.55 207.00,37.00 C207.00,36.45 205.89,36.00 204.54,36.00 C202.13,36.00 199.42,32.91 200.70,31.63 C201.05,31.28 199.47,31.00 197.19,31.00 C194.92,31.00 190.90,30.03 188.28,28.85 C174.24,22.55 172.87,22.37 140.50,22.55 C109.32,22.73 108.75,22.81 96.28,28.66 C89.86,31.68 77.28,44.84 73.65,52.33 C69.25,61.42 65.77,73.19 65.73,79.13 C65.70,83.40 65.97,88.78 66.36,93.39 C66.79,98.52 67.36,102.75 67.82,103.35 C68.19,103.82 68.68,106.94 69.06,110.98 C69.12,114.05 69.36,117.31 69.77,120.73 C70.18,125.76 70.72,128.91 72.02,133.92 C72.67,136.95 73.44,140.06 74.30,143.24 C74.37,143.49 74.44,143.73 74.53,143.98 C74.74,145.46 74.80,146.72 74.64,147.35 C74.29,148.78 74.70,149.55 77.12,150.85 C74.18,149.63 73.25,149.90 72.64,151.49 C72.33,152.31 72.56,152.87 73.16,152.74 C73.69,152.62 74.30,152.97 74.60,153.52 C74.33,153.13 73.90,152.85 73.50,152.85 C72.98,152.85 72.39,153.33 72.19,153.93 C71.99,154.52 72.58,155.00 73.50,155.00 C73.75,155.00 73.97,154.97 74.16,154.90 C73.99,154.97 73.80,155.00 73.58,155.00 C72.31,155.00 72.00,156.20 72.00,161.13 C72.00,167.59 76.35,182.24 80.08,188.36 C81.13,190.09 81.99,192.42 82.00,193.55 C82.00,194.68 82.55,196.15 83.23,196.83 C83.91,197.51 85.14,197.92 85.98,197.75 C88.26,197.28 87.69,177.42 85.33,174.81 C84.48,173.87 84.12,173.15 84.18,172.05 C84.22,171.38 84.41,170.58 84.74,169.49 C84.41,170.58 84.22,171.38 84.18,172.05 C84.12,173.16 84.49,173.88 85.37,174.86 C86.67,176.30 87.18,179.25 87.53,187.57 C87.79,193.52 88.45,198.85 89.00,199.40 C89.55,199.95 90.03,202.00 90.06,203.95 C90.08,205.07 90.23,206.42 90.49,207.92 C91.10,212.02 92.45,216.80 94.24,221.41 C95.93,226.06 97.86,230.27 99.53,232.45 C100.89,234.23 102.00,236.03 102.00,236.44 C102.00,237.71 112.95,253.72 116.55,257.72 C117.21,258.45 117.83,259.18 118.35,259.82 C117.97,259.37 117.54,258.88 117.09,258.40 C115.49,256.70 111.69,251.62 108.64,247.12 C105.59,242.62 102.76,238.84 102.35,238.72 C102.07,238.63 101.79,243.01 101.61,249.48 C101.58,248.97 101.54,248.49 101.51,248.06 L 100.79 240.03 L 96.79 244.77 C93.14,249.09 88.28,258.16 83.19,270.13 C81.26,274.66 81.04,274.82 72.86,277.52 C68.26,279.03 58.88,283.25 52.00,286.88 C45.12,290.52 35.90,295.12 31.50,297.10 C27.10,299.08 21.25,301.73 18.50,302.99 C11.68,306.12 4.92,309.00 4.42,309.00 C4.19,309.00 4.00,240.38 4.00,156.50 L 4.00 4.00 L 315.00 4.00 L 315.00 154.63 C315.00,277.50 315.00,294.75 312.82,295.03 C312.47,295.07 312.05,294.67 311.57,294.19 C311.53,294.15 311.49,294.11 311.45,294.07 C310.93,293.56 304.98,291.53 298.23,289.56 C291.48,287.58 282.99,284.85 279.37,283.49 C275.74,282.12 266.86,279.65 259.63,278.00 C252.41,276.35 242.01,273.73 236.53,272.17 L 226.56 269.35 L 221.24 259.04 C215.36,247.66 210.42,240.00 208.95,240.00 C207.03,240.00 208.10,235.76 211.95,228.11 C215.86,220.32 217.93,215.86 219.07,209.98 C219.69,207.40 220.00,205.09 220.00,203.06 C220.00,202.94 220.00,202.83 220.00,202.72 C220.08,201.75 220.14,200.74 220.20,199.67 ZM 101.45 269.61 C101.58,278.48 102.12,284.92 103.51,290.32 C101.72,283.97 101.12,277.41 101.45,269.61 ZM 82.19 153.29 L 84.76 154.50 L 85.29 160.25 C85.57,163.42 85.33,167.57 84.74,169.49 C85.33,167.57 85.57,163.42 85.27,160.25 C84.83,155.61 84.71,154.69 82.19,153.29 Z" fill="rgb(42,156,217)"/>
<path d="M 249.17 388.13 C247.44,387.03 252.42,386.00 259.38,386.01 C265.96,386.03 269.68,386.96 267.83,388.12 C266.10,389.22 250.90,389.22 249.17,388.13 ZM 161.09 356.25 C157.01,352.09 150.50,346.72 146.62,344.33 C141.61,341.25 137.59,337.61 132.78,331.81 C129.05,327.31 126.00,323.22 126.00,322.71 C126.00,322.20 122.96,318.57 119.24,314.64 C103.13,297.62 101.16,291.53 101.43,259.50 C101.53,247.95 101.95,238.60 102.35,238.72 C102.76,238.84 105.59,242.62 108.64,247.12 C111.69,251.62 115.49,256.70 117.09,258.40 C118.68,260.11 119.99,261.79 120.00,262.14 C120.00,262.49 121.10,263.06 122.43,263.39 C123.77,263.73 125.12,264.82 125.44,265.81 C125.97,267.47 132.28,269.58 142.00,271.35 C143.38,271.60 146.97,272.75 149.99,273.90 C153.00,275.06 156.44,276.00 157.63,276.00 C161.32,276.00 161.26,278.83 157.49,282.71 C155.57,284.69 154.00,286.85 154.00,287.51 C154.00,288.18 155.57,290.69 157.49,293.11 C161.56,298.23 161.66,298.87 159.00,303.23 C156.59,307.19 156.45,310.77 158.61,313.85 C161.16,317.50 163.82,317.93 170.27,315.75 C175.01,314.15 176.59,314.00 178.85,314.94 C180.38,315.57 183.28,315.98 185.31,315.84 C187.33,315.70 189.39,316.02 189.88,316.55 C190.37,317.07 191.07,320.00 191.43,323.05 C191.98,327.64 191.76,329.04 190.21,331.05 C189.17,332.40 187.13,335.98 185.68,339.00 C183.12,344.36 172.84,359.64 169.95,362.42 C168.70,363.62 167.47,362.76 161.09,356.25 ZM 79.67 337.33 C79.30,336.97 79.00,335.05 79.00,333.08 C79.00,331.11 78.32,325.67 77.50,321.00 C76.68,316.33 76.03,311.38 76.07,310.00 C76.13,307.71 76.21,307.67 77.00,309.50 C78.21,312.30 83.00,333.40 83.00,335.92 C83.00,337.91 81.06,338.73 79.67,337.33 ZM 120.00 335.00 C120.00,334.45 120.45,334.00 121.00,334.00 C121.55,334.00 122.00,334.45 122.00,335.00 C122.00,335.55 121.55,336.00 121.00,336.00 C120.45,336.00 120.00,335.55 120.00,335.00 ZM 204.00 325.00 C204.00,324.45 204.68,324.00 205.50,324.00 C206.32,324.00 207.00,324.45 207.00,325.00 C207.00,325.55 206.32,326.00 205.50,326.00 C204.68,326.00 204.00,325.55 204.00,325.00 ZM 145.59 248.15 C145.20,247.52 144.05,247.00 143.02,247.00 C142.00,247.00 141.00,246.49 140.79,245.86 C140.52,245.06 139.74,245.13 138.07,246.11 C136.25,247.20 135.64,247.23 135.29,246.25 C134.99,245.44 133.91,245.23 132.17,245.67 C129.79,246.26 129.65,246.15 130.84,244.71 C132.53,242.66 131.37,240.67 128.87,241.32 C126.97,241.82 124.59,240.18 123.72,237.77 C123.35,236.74 122.85,236.75 121.11,237.77 C117.73,239.77 114.99,237.81 115.51,233.76 C116.17,228.47 114.07,221.98 111.36,220.95 C109.95,220.41 109.00,219.23 109.00,218.02 C109.00,216.91 108.66,216.00 108.25,215.99 C107.84,215.99 106.73,214.64 105.80,212.99 C104.86,211.35 103.40,210.00 102.55,210.00 C101.67,210.00 101.00,209.14 101.00,208.00 C101.00,206.90 100.58,206.00 100.07,206.00 C99.55,206.00 98.83,204.99 98.45,203.75 C98.07,202.51 97.13,200.77 96.35,199.88 C95.57,198.99 94.77,196.74 94.59,194.88 C94.10,190.07 92.92,186.00 92.00,186.00 C91.57,186.00 90.97,184.54 90.67,182.75 C90.37,180.96 89.61,176.80 88.98,173.50 C87.66,166.49 88.57,150.69 90.27,151.26 C90.87,151.46 92.38,155.81 93.64,160.92 C97.02,174.72 99.06,177.04 109.43,178.92 C117.37,180.36 124.27,180.26 131.38,178.58 C139.58,176.66 142.92,173.01 148.40,159.99 C152.15,151.10 153.19,149.45 155.25,149.20 C157.34,148.94 157.95,149.58 159.49,153.70 C163.02,163.09 166.97,169.82 170.98,173.25 C174.64,176.39 175.79,176.79 182.28,177.19 C190.45,177.69 198.00,177.15 198.00,176.06 C198.00,175.66 195.19,175.25 191.75,175.15 C180.52,174.84 174.83,173.83 172.80,171.80 C171.27,170.27 171.11,169.57 172.06,168.43 C173.52,166.67 175.39,166.53 174.40,168.25 C173.98,168.98 174.06,169.15 174.59,168.67 C175.48,167.85 175.63,167.40 175.88,164.59 C175.98,163.47 177.55,163.30 183.84,163.73 C189.59,164.12 193.00,163.83 196.59,162.64 C203.30,160.43 207.13,161.50 208.61,166.01 C209.70,169.32 209.75,169.34 210.92,167.15 C211.58,165.92 212.61,160.91 213.21,156.02 C214.19,148.04 214.12,146.83 212.53,144.31 C210.79,141.57 210.80,141.54 212.63,143.28 C214.05,144.64 214.63,147.04 215.04,153.28 C215.33,157.80 215.16,161.79 214.66,162.14 C214.16,162.49 214.07,163.30 214.47,163.95 C214.90,164.65 213.53,166.76 211.09,169.15 C208.83,171.36 207.25,173.60 207.58,174.13 C207.95,174.72 208.82,174.61 209.84,173.85 C211.24,172.79 211.30,172.82 210.25,174.00 C209.56,174.77 209.00,176.64 209.00,178.16 C209.00,179.67 207.06,184.65 204.68,189.21 C202.31,193.77 199.56,199.67 198.57,202.32 C196.19,208.73 193.38,209.87 188.37,206.47 C186.36,205.11 184.06,204.00 183.26,204.00 C181.65,204.00 172.08,199.42 170.54,197.92 C169.93,197.33 170.39,196.41 171.79,195.43 C174.97,193.21 174.56,192.42 169.54,191.01 C165.29,189.82 164.92,189.89 161.96,192.38 C160.25,193.82 158.17,195.00 157.34,195.00 C155.46,195.00 156.15,197.45 158.09,197.63 C158.86,197.71 160.12,197.82 160.88,197.88 C161.85,197.97 162.08,198.85 161.66,200.96 C160.95,204.49 162.86,206.82 167.14,207.68 C171.74,208.60 171.38,209.72 166.24,210.44 C159.46,211.40 158.00,211.95 158.00,213.54 C158.00,214.56 157.20,214.79 155.12,214.37 C152.15,213.78 148.00,215.33 148.00,217.04 C148.00,217.59 152.56,218.03 158.75,218.07 C174.42,218.17 175.39,218.93 167.00,224.51 C160.72,228.68 159.23,229.22 153.14,229.50 C147.00,229.78 145.46,231.25 147.70,234.67 C149.46,237.35 152.96,237.62 164.44,235.96 C170.31,235.11 171.62,235.19 172.94,236.51 C174.32,237.89 174.33,238.18 173.00,239.02 C172.18,239.54 170.52,239.98 169.33,239.98 C168.14,239.99 166.99,240.52 166.78,241.15 C166.57,241.79 165.30,242.38 163.95,242.47 C162.50,242.57 161.10,243.53 160.51,244.83 C159.96,246.04 158.96,246.82 158.29,246.56 C157.62,246.30 156.82,246.48 156.52,246.96 C156.22,247.45 154.42,247.40 152.40,246.85 C149.43,246.02 148.61,246.15 147.56,247.58 C146.68,248.79 146.09,248.96 145.59,248.15 ZM 126.86 220.46 C129.07,218.60 131.10,217.90 134.48,217.84 C138.17,217.76 139.04,217.42 138.79,216.12 C138.62,215.20 137.30,214.36 135.74,214.18 C132.72,213.83 131.85,210.65 134.50,209.64 C135.32,209.32 136.00,208.39 136.00,207.56 C136.00,206.64 136.58,206.28 137.51,206.64 C138.92,207.18 151.52,205.30 153.30,204.28 C154.75,203.45 151.68,200.85 149.82,201.34 C148.82,201.60 148.00,201.48 148.00,201.07 C148.00,200.67 147.32,200.33 146.50,200.33 C145.68,200.33 145.00,200.89 145.00,201.57 C145.00,202.32 144.21,202.61 143.00,202.29 C141.90,202.00 141.00,202.20 141.00,202.73 C141.00,203.26 139.62,203.73 137.93,203.78 C136.24,203.83 134.13,204.46 133.24,205.19 C131.86,206.30 131.75,206.27 132.50,205.00 C133.26,203.71 133.15,203.69 131.69,204.87 C130.76,205.63 129.99,205.85 129.98,205.37 C129.98,204.89 129.53,205.18 129.00,206.00 C128.20,207.24 128.03,207.26 128.02,206.08 C128.00,205.09 127.22,205.38 125.47,207.03 C122.18,210.12 119.32,219.48 121.04,221.55 C122.68,223.53 123.37,223.40 126.86,220.46 ZM 146.78 193.00 C147.92,193.00 148.09,192.69 147.34,191.94 C146.07,190.67 140.76,191.81 141.61,193.17 C141.93,193.70 142.87,193.88 143.68,193.57 C144.50,193.26 145.89,193.00 146.78,193.00 ZM 173.00 181.97 C173.00,180.77 170.18,179.49 169.36,180.31 C168.48,181.19 169.97,183.00 171.56,183.00 C172.35,183.00 173.00,182.54 173.00,181.97 ZM 83.23 196.83 C82.55,196.15 82.00,194.68 82.00,193.55 C81.99,192.42 81.13,190.09 80.08,188.36 C76.35,182.24 72.00,167.59 72.00,161.13 C72.00,156.20 72.31,155.00 73.58,155.00 C74.45,155.00 74.96,154.44 74.71,153.75 C74.46,153.06 73.76,152.61 73.16,152.74 C72.56,152.87 72.33,152.31 72.64,151.49 C73.42,149.46 74.73,149.59 80.11,152.23 C84.67,154.47 84.74,154.58 85.27,160.25 C85.57,163.42 85.33,167.58 84.74,169.49 C83.86,172.37 83.96,173.30 85.33,174.81 C87.69,177.42 88.26,197.28 85.98,197.75 C85.14,197.92 83.91,197.51 83.23,196.83 ZM 107.50 177.14 C99.32,174.98 95.95,169.44 95.21,156.87 C94.81,150.16 95.00,149.00 96.81,147.19 C99.33,144.67 104.44,143.18 113.00,142.48 C118.32,142.05 119.05,142.16 117.00,143.07 C115.62,143.69 114.05,144.30 113.50,144.44 C110.87,145.11 108.42,146.47 107.70,147.67 C107.19,148.52 104.89,149.00 101.38,149.00 C96.66,149.00 95.90,149.25 96.19,150.75 C96.42,151.98 97.76,152.65 100.74,153.00 C103.07,153.27 105.82,154.24 106.86,155.14 C109.53,157.44 115.49,157.05 115.50,154.58 C115.50,153.56 116.27,152.24 117.21,151.64 C118.59,150.77 119.49,151.10 121.77,153.28 C125.33,156.69 128.27,156.74 130.89,153.42 C132.21,151.74 133.37,151.11 134.21,151.64 C134.92,152.08 135.95,152.48 136.50,152.53 C137.05,152.58 138.26,152.97 139.20,153.39 C141.37,154.39 145.56,150.76 144.46,148.83 C143.88,147.80 143.99,147.76 144.97,148.67 C147.04,150.57 145.85,161.70 142.97,167.52 C139.37,174.79 134.25,177.10 120.75,177.57 C115.11,177.77 109.15,177.57 107.50,177.14 ZM 134.86 160.94 C136.71,159.81 138.06,158.75 137.86,158.58 C137.21,158.02 128.82,157.16 129.37,157.70 C129.66,158.00 129.25,158.90 128.44,159.70 C127.64,160.50 127.24,161.57 127.55,162.08 C128.47,163.57 131.26,163.14 134.86,160.94 ZM 140.46 156.06 C140.79,155.54 139.28,155.15 137.01,155.18 C134.79,155.21 132.73,155.63 132.43,156.12 C132.13,156.60 133.68,157.00 135.88,157.00 C138.08,157.00 140.14,156.58 140.46,156.06 ZM 225.07 162.12 C223.74,161.75 222.49,160.96 222.29,160.37 C221.97,159.40 228.03,154.00 229.43,154.00 C229.74,154.00 230.00,156.02 230.00,158.50 C230.00,163.19 229.70,163.41 225.07,162.12 ZM 181.09 160.08 C180.32,159.59 179.18,159.38 178.56,159.61 C176.98,160.22 173.15,157.02 174.69,156.37 C175.35,156.10 175.64,155.22 175.33,154.42 C174.75,152.92 176.59,150.00 178.12,150.00 C178.61,150.00 179.00,150.61 179.00,151.35 C179.00,153.34 182.34,156.00 184.84,156.00 C186.17,156.00 187.71,154.88 188.76,153.16 C189.72,151.60 191.06,150.51 191.75,150.75 C193.87,151.46 193.13,154.59 190.51,155.99 C188.77,156.93 188.32,157.68 189.00,158.50 C189.54,159.15 189.69,159.98 189.32,160.34 C188.37,161.30 182.74,161.12 181.09,160.08 ZM 115.99 147.51 C117.56,145.61 122.94,144.54 124.27,145.87 C125.50,147.10 124.50,147.55 118.67,148.37 C115.48,148.81 115.03,148.67 115.99,147.51 ZM 184.61 144.83 C185.09,144.04 184.78,143.87 183.66,144.30 C182.75,144.65 182.00,144.49 182.00,143.94 C182.00,143.39 182.79,142.69 183.75,142.40 C184.71,142.10 186.89,141.25 188.59,140.52 C192.62,138.78 195.48,140.17 192.50,142.43 C191.40,143.26 189.38,143.96 188.00,143.98 C186.01,144.02 185.81,144.23 187.00,145.00 C188.21,145.78 188.05,145.97 186.19,145.98 C184.68,145.99 184.13,145.60 184.61,144.83 ZM 90.40 137.90 C90.83,133.83 92.21,129.28 94.17,125.39 C95.87,122.03 97.06,118.68 96.81,117.94 C96.30,116.41 103.32,110.73 108.28,108.66 C110.10,107.89 114.20,104.87 117.38,101.94 C130.29,90.03 139.17,86.39 151.18,88.10 C154.11,88.51 158.78,88.89 161.57,88.93 C170.71,89.06 176.30,91.43 182.71,97.90 C190.28,105.56 193.92,110.20 197.99,117.41 L 201.33 123.32 L 198.42 125.75 C189.27,133.35 187.94,134.00 181.60,134.01 C173.51,134.01 168.17,135.60 165.06,138.93 C163.07,141.06 161.21,141.82 156.74,142.34 C148.71,143.29 143.00,142.27 143.00,139.90 C143.00,138.88 141.79,137.25 140.32,136.29 C137.46,134.41 133.96,134.34 121.50,135.87 C117.57,136.35 114.35,136.35 114.17,135.87 C113.18,133.31 103.75,136.11 99.67,140.18 C98.12,141.73 96.32,143.01 95.67,143.01 C95.03,143.02 93.42,143.32 92.10,143.67 C89.71,144.31 89.71,144.31 90.40,137.90 ZM 192.00 137.94 C192.00,137.42 193.88,137.00 196.17,137.00 C201.10,137.00 200.94,137.49 195.75,138.30 C193.67,138.62 192.00,138.46 192.00,137.94 Z" fill="rgb(215,167,143)"/>
</g>
</svg>